<svg width="501" height="543" viewBox="0 0 501 543" fill="none" xmlns="http://www.w3.org/2000/svg">
<path d="M147.252 532.129L99.9482 466.072C122.34 454.316 137.175 425.486 137.175 378.462V352.151C137.175 349.072 134.656 346.273 131.577 346.273H87.6325C84.5535 346.273 82.0344 348.792 82.0344 351.871C82.0344 407.012 75.8766 433.603 56.2834 436.682V352.431C56.2834 349.352 53.7642 346.833 50.6853 346.833H5.90081C2.82187 346.833 0.302734 349.352 0.302734 352.431V537.167C0.302734 540.246 2.82187 542.765 5.90081 542.765H50.6853C53.7642 542.765 56.2834 540.246 56.2834 537.167V491.823L87.6325 540.246C88.4722 541.645 90.1516 542.765 91.831 542.765H141.374C145.572 542.765 148.651 539.966 148.651 536.327C148.651 535.208 148.371 533.528 147.252 532.129Z" fill="white"/>
<path d="M318.319 346.833H206.917C203.838 346.833 201.319 349.352 201.319 352.431V537.167C201.319 540.246 203.838 542.765 206.917 542.765H251.702C254.781 542.765 257.3 540.246 257.3 537.167V478.387H311.601C314.68 478.387 317.199 475.868 317.199 472.789V432.483C317.199 429.404 314.68 426.885 311.601 426.885H257.3V398.895H318.319C321.398 398.895 323.917 396.376 323.917 393.297V352.431C323.917 349.352 321.398 346.833 318.319 346.833Z" fill="white"/>
<path d="M494.704 395.256C497.783 395.256 500.303 392.737 500.303 389.658V352.431C500.303 349.352 497.783 346.833 494.704 346.833H382.183C379.105 346.833 376.585 349.352 376.585 352.431V537.167C376.585 540.246 379.105 542.765 382.183 542.765H494.704C497.783 542.765 500.303 540.246 500.303 537.167V499.94C500.303 496.861 497.783 494.342 494.704 494.342H432.566V466.072H484.068C487.147 466.072 489.666 463.553 489.666 460.474V428.845C489.666 425.766 487.147 423.247 484.068 423.247H432.566V395.256L494.704 395.256Z" fill="white"/>
<path fill-rule="evenodd" clip-rule="evenodd" d="M248.309 96.4641C248.693 96.8775 249.231 97.1121 249.796 97.1121C250.36 97.1121 250.898 96.8774 251.282 96.4641C264.885 81.9867 277.404 67.5443 283.349 57.508C293.84 39.7084 295.833 29.1476 291.672 17.0131C288.839 8.72535 280.971 0.332642 272.613 0.332642C261.808 0.332642 250.617 14.3205 249.813 36.0716C248.974 14.4604 234.252 0.332642 223.446 0.332642C215.088 0.332642 207.22 8.72535 204.387 17.0131C200.226 29.1476 202.184 39.7084 212.71 57.508C218.83 67.5442 234.496 81.9867 248.309 96.4641ZM185.329 96.8138C184.534 83.9548 189.297 71.3731 198.408 62.2638C200.144 60.9612 201.159 63.8046 202.738 68.23C204.721 73.7849 207.593 81.8328 213.899 87.3021C221.907 94.2261 227.013 92.5825 235.336 99.1917C241.999 104.678 246.951 111.96 249.603 120.174C252.27 111.958 257.233 104.677 263.906 99.1917C272.229 92.5825 277.299 94.296 285.342 87.3021C291.633 81.8293 294.507 73.7755 296.489 68.2202C298.066 63.8004 299.079 60.9622 300.799 62.2638C309.934 71.3594 314.712 83.9474 313.912 96.8138C311.744 116.117 292.266 137.938 273.418 142.065C266.199 143.823 259.605 147.538 254.359 152.8C252.968 154.355 251.716 156.028 250.617 157.801C250.407 158.185 249.918 159.025 249.638 158.745C249.358 159.025 248.834 158.185 248.624 157.801C247.525 156.028 246.273 154.355 244.882 152.8C239.637 147.538 233.043 143.823 225.824 142.065C207.01 137.938 187.357 116.117 185.329 96.8138ZM366.507 80.1333C352.519 69.1528 333.111 66.4952 330.768 70.6216C329.682 72.5418 332.678 75.1876 337.2 79.1818C344.043 85.2259 354.383 94.3582 359.373 108.738C369.144 137.04 351.334 166.247 348.654 170.642L348.637 170.67C337.901 188.154 317.164 207.283 298.596 211.164C289.203 212.827 280.273 216.475 272.403 221.865C269.917 223.67 267.579 225.67 265.409 227.845C258.708 234.202 253.438 241.916 249.953 250.47C246.887 241.937 241.939 234.204 235.475 227.845C233.306 225.67 230.968 223.67 228.482 221.865C220.612 216.475 211.682 212.827 202.289 211.164C183.406 207.283 162.879 188.224 151.968 170.67L151.952 170.642C149.271 166.247 131.461 137.04 141.232 108.738C146.207 94.4034 156.547 85.2833 163.401 79.2391C167.966 75.2127 170.984 72.5509 169.837 70.6216C167.495 66.4952 148.261 69.1528 134.099 80.1333C111.124 97.9678 106.927 133.427 112.662 158.92C118.694 184.814 135.04 207.122 157.913 220.676C181.937 234.664 197.988 228.02 222.257 245.714C232.954 253.604 241.976 263.542 248.799 274.949C249.006 275.303 249.385 275.521 249.796 275.521C250.206 275.521 250.585 275.303 250.792 274.949C258.031 263.56 267.357 253.641 278.278 245.714C302.547 228.02 318.598 234.524 342.622 220.676C365.522 207.136 381.894 184.826 387.943 158.92C393.678 133.427 389.482 97.9678 366.507 80.1333ZM171.026 90.869C166.271 90.869 162.249 104.857 161.515 107.549C155.726 129.603 161.051 153.093 175.782 170.495C188.476 184.483 207.78 192.421 212.71 194.309C217.621 195.927 222.402 197.914 227.013 200.254C235.403 204.914 242.728 211.274 248.519 218.928C248.831 219.312 249.3 219.536 249.796 219.536C250.291 219.536 250.76 219.312 251.072 218.928C257.315 211.32 264.96 204.981 273.592 200.254C278.203 197.914 282.984 195.927 287.895 194.309C292.826 192.421 312.129 184.588 324.823 170.495C339.554 153.093 344.879 129.603 339.09 107.549C338.356 104.752 334.335 90.6941 329.579 90.869C322.585 91.1138 322.305 122.097 306.953 140.876C300.199 148.905 292.15 155.748 283.139 161.123C273.313 166.683 267.787 167.033 261.703 172.908C255.248 179.336 251.072 187.699 249.813 196.722C248.952 187.784 245.109 179.396 238.902 172.908C232.748 166.893 227.293 166.543 217.466 160.983C208.455 155.608 200.406 148.765 193.652 140.736C178.3 122.097 178.055 91.1138 171.026 90.869Z" fill="white"/>
</svg>
