<svg width="500" height="543" viewBox="0 0 500 543" fill="none" xmlns="http://www.w3.org/2000/svg">
<path d="M146.949 531.796L99.6455 465.739C122.038 453.983 136.873 425.153 136.873 378.129V351.819C136.873 348.74 134.353 345.941 131.274 345.941H87.3297C84.2508 345.941 81.7317 348.46 81.7317 351.539C81.7317 406.679 75.5738 433.27 55.9806 436.349V352.098C55.9806 349.019 53.4615 346.5 50.3825 346.5H5.59807C2.51914 346.5 0 349.019 0 352.098V536.834C0 539.913 2.51914 542.432 5.59807 542.432H50.3825C53.4615 542.432 55.9806 539.913 55.9806 536.834V491.49L87.3297 539.913C88.1694 541.313 89.8489 542.432 91.5283 542.432H141.071C145.27 542.432 148.349 539.633 148.349 535.995C148.349 534.875 148.069 533.196 146.949 531.796Z" fill="black"/>
<path d="M318.016 346.5H206.615C203.536 346.5 201.017 349.02 201.017 352.098V536.834C201.017 539.913 203.536 542.433 206.615 542.433H251.399C254.478 542.433 256.997 539.913 256.997 536.834V478.055H311.298C314.377 478.055 316.896 475.536 316.896 472.457V432.151C316.896 429.072 314.377 426.553 311.298 426.553H256.997V398.562H318.016C321.095 398.562 323.614 396.043 323.614 392.964V352.098C323.614 349.02 321.095 346.5 318.016 346.5Z" fill="black"/>
<path d="M494.402 394.924C497.481 394.924 500 392.405 500 389.326V352.098C500 349.02 497.481 346.5 494.402 346.5H381.881C378.802 346.5 376.283 349.02 376.283 352.098V536.834C376.283 539.913 378.802 542.433 381.881 542.433H494.402C497.481 542.433 500 539.913 500 536.834V499.607C500 496.528 497.481 494.009 494.402 494.009H432.263V465.739H483.765C486.844 465.739 489.363 463.22 489.363 460.141V428.512C489.363 425.433 486.844 422.914 483.765 422.914H432.263V394.924L494.402 394.924Z" fill="black"/>
<path fill-rule="evenodd" clip-rule="evenodd" d="M248.007 96.1315C248.39 96.5448 248.929 96.7795 249.493 96.7795C250.057 96.7795 250.595 96.5448 250.979 96.1315C264.582 81.654 277.101 67.2116 283.046 57.1753C293.537 39.3758 295.53 28.815 291.369 16.6805C288.536 8.39271 280.668 0 272.31 0C261.505 0 250.315 13.9878 249.51 35.739C248.671 14.1278 233.949 0 223.143 0C214.785 0 206.917 8.39271 204.085 16.6805C199.923 28.815 201.882 39.3758 212.407 57.1753C218.527 67.2116 234.194 81.654 248.007 96.1315ZM185.026 96.4812C184.231 83.6222 188.994 71.0404 198.105 61.9312C199.842 60.6286 200.856 63.4719 202.436 67.8973C204.418 73.4523 207.29 81.5002 213.597 86.9694C221.605 93.8934 226.71 92.2498 235.033 98.8591C241.697 104.345 246.648 111.627 249.3 119.841C251.968 111.625 256.93 104.344 263.603 98.8591C271.926 92.2498 276.996 93.9634 285.039 86.9694C291.33 81.4967 294.204 73.4428 296.186 67.8876C297.763 63.4677 298.776 60.6296 300.496 61.9312C309.631 71.0268 314.409 83.6148 313.61 96.4812C311.441 115.784 291.963 137.605 273.115 141.732C265.896 143.491 259.302 147.206 254.056 152.468C252.666 154.022 251.414 155.696 250.315 157.468C250.105 157.853 249.615 158.692 249.335 158.412C249.056 158.692 248.531 157.853 248.321 157.468C247.222 155.696 245.97 154.022 244.58 152.468C239.334 147.206 232.74 143.491 225.521 141.732C206.707 137.605 187.055 115.784 185.026 96.4812ZM366.204 79.8006C352.216 68.8202 332.808 66.1625 330.465 70.2889C329.379 72.2091 332.375 74.8549 336.898 78.8491C343.74 84.8933 354.08 94.0256 359.07 108.406C368.841 136.707 351.032 165.914 348.351 170.31L348.334 170.337C337.599 187.822 316.862 206.95 298.293 210.832C288.9 212.495 279.971 216.143 272.101 221.533C269.615 223.337 267.276 225.337 265.107 227.512C258.405 233.869 253.136 241.583 249.65 250.138C246.584 241.605 241.636 233.872 235.173 227.512C233.004 225.337 230.665 223.337 228.179 221.533C220.309 216.143 211.379 212.495 201.987 210.832C183.103 206.95 162.576 187.892 151.665 170.337L151.649 170.31C148.968 165.914 131.158 136.707 140.93 108.406C145.904 94.0707 156.245 84.9506 163.098 78.9065C167.663 74.8801 170.681 72.2182 169.535 70.2889C167.192 66.1625 147.959 68.8202 133.796 79.8006C110.821 97.6352 106.624 133.094 112.359 158.587C118.391 184.482 134.737 206.789 157.61 220.344C181.634 234.331 197.685 227.687 221.954 245.382C232.651 253.272 241.674 263.209 248.496 274.616C248.703 274.971 249.083 275.188 249.493 275.188C249.903 275.188 250.282 274.971 250.489 274.616C257.728 263.227 267.054 253.308 277.976 245.382C302.244 227.687 318.296 234.192 342.32 220.344C365.22 206.804 381.592 184.494 387.64 158.587C393.375 133.094 389.179 97.6352 366.204 79.8006ZM170.724 90.5363C165.968 90.5363 161.946 104.524 161.212 107.217C155.423 129.27 160.748 152.76 175.48 170.162C188.174 184.15 207.477 192.088 212.408 193.976C217.318 195.594 222.099 197.582 226.71 199.921C235.1 204.581 242.425 210.942 248.216 218.595C248.528 218.98 248.997 219.203 249.493 219.203C249.988 219.203 250.457 218.98 250.769 218.595C257.013 210.987 264.657 204.648 273.29 199.921C277.9 197.582 282.681 195.594 287.592 193.976C292.523 192.088 311.826 184.255 324.52 170.162C339.252 152.76 344.576 129.27 338.788 107.217C338.053 104.419 334.032 90.3615 329.276 90.5363C322.282 90.7811 322.002 121.764 306.651 140.543C299.896 148.572 291.847 155.415 282.836 160.79C273.01 166.35 267.485 166.7 261.4 172.575C254.945 179.004 250.77 187.367 249.51 196.389C248.649 187.452 244.806 179.064 238.6 172.575C232.445 166.56 226.99 166.211 217.163 160.65C208.152 155.276 200.103 148.432 193.349 140.403C177.997 121.764 177.753 90.7811 170.724 90.5363Z" fill="black"/>
</svg>
